<?xml version="1.0" encoding="UTF-8" standalone="no"?>
<svg
   xmlns:dc="http://purl.org/dc/elements/1.1/"
   xmlns:cc="http://creativecommons.org/ns#"
   xmlns:rdf="http://www.w3.org/1999/02/22-rdf-syntax-ns#"
   xmlns:svg="http://www.w3.org/2000/svg"
   xmlns="http://www.w3.org/2000/svg"
   xmlns:sodipodi="http://sodipodi.sourceforge.net/DTD/sodipodi-0.dtd"
   xmlns:inkscape="http://www.inkscape.org/namespaces/inkscape"
   viewBox="0 0 29700 21000"
   width="1000"
   height="720"
   version="1.1"
   id="svg150"
   sodipodi:docname="lagrange.svg"
   inkscape:version="1.0.2 (e86c870879, 2021-01-15)">
  <path
     style="fill:none;stroke:#ff0000;stroke-width:79.2;stroke-linecap:butt;stroke-linejoin:miter;stroke-miterlimit:2.9;stroke-dasharray:none;stroke-opacity:1;marker-start:url(#Arrow2Mstart)"
     d="m 15658.933,10966.394 -1994.816,-464.218"
     id="path895-7"
     sodipodi:nodetypes="cc" />
  <metadata
     id="metadata156">
    <rdf:RDF>
      <cc:Work
         rdf:about="">
        <dc:format>image/svg+xml</dc:format>
        <dc:type
           rdf:resource="http://purl.org/dc/dcmitype/StillImage" />
      </cc:Work>
    </rdf:RDF>
  </metadata>
  <defs
     id="defs154">
    <marker
       style="overflow:visible"
       id="Arrow2Mstart"
       refX="0.0"
       refY="0.0"
       orient="auto"
       inkscape:stockid="Arrow2Mstart"
       inkscape:isstock="true">
      <path
         transform="scale(0.6) translate(0,0)"
         d="M 8.7185878,4.0337352 L -2.2072895,0.016013256 L 8.7185884,-4.0017078 C 6.9730900,-1.6296469 6.9831476,1.6157441 8.7185878,4.0337352 z "
         style="fill-rule:evenodd;stroke-width:0.625;stroke-linejoin:round;stroke:#ff0000;stroke-opacity:1;fill:#ff0000;fill-opacity:1"
         id="path921" />
    </marker>
    <marker
       style="overflow:visible"
       id="marker1811"
       refX="0.0"
       refY="0.0"
       orient="auto"
       inkscape:stockid="Arrow2Lstart"
       inkscape:isstock="true">
      <path
         transform="scale(1.1) translate(1,0)"
         d="M 8.7185878,4.0337352 L -2.2072895,0.016013256 L 8.7185884,-4.0017078 C 6.9730900,-1.6296469 6.9831476,1.6157441 8.7185878,4.0337352 z "
         style="fill-rule:evenodd;stroke-width:0.625;stroke-linejoin:round;stroke:#ff0000;stroke-opacity:1;fill:#ff0000;fill-opacity:1"
         id="path1809" />
    </marker>
    <marker
       style="overflow:visible"
       id="marker1735"
       refX="0.0"
       refY="0.0"
       orient="auto"
       inkscape:stockid="Arrow1Mstart"
       inkscape:isstock="true">
      <path
         transform="scale(0.4) translate(10,0)"
         style="fill-rule:evenodd;stroke:#ff0000;stroke-width:1pt;stroke-opacity:1;fill:#ff0000;fill-opacity:1"
         d="M 0.0,0.0 L 5.0,-5.0 L -12.5,0.0 L 5.0,5.0 L 0.0,0.0 z "
         id="path1733" />
    </marker>
    <marker
       style="overflow:visible"
       id="marker1665"
       refX="0.0"
       refY="0.0"
       orient="auto"
       inkscape:stockid="Arrow2Lstart"
       inkscape:isstock="true">
      <path
         transform="scale(1.1) translate(1,0)"
         d="M 8.7185878,4.0337352 L -2.2072895,0.016013256 L 8.7185884,-4.0017078 C 6.9730900,-1.6296469 6.9831476,1.6157441 8.7185878,4.0337352 z "
         style="fill-rule:evenodd;stroke-width:0.625;stroke-linejoin:round;stroke:#ff0000;stroke-opacity:1;fill:#ff0000;fill-opacity:1"
         id="path1663" />
    </marker>
    <marker
       style="overflow:visible"
       id="Arrow2Lstart"
       refX="0.0"
       refY="0.0"
       orient="auto"
       inkscape:stockid="Arrow2Lstart"
       inkscape:isstock="true">
      <path
         transform="scale(1.1) translate(1,0)"
         d="M 8.7185878,4.0337352 L -2.2072895,0.016013256 L 8.7185884,-4.0017078 C 6.9730900,-1.6296469 6.9831476,1.6157441 8.7185878,4.0337352 z "
         style="fill-rule:evenodd;stroke-width:0.625;stroke-linejoin:round;stroke:#ff0000;stroke-opacity:1;fill:#ff0000;fill-opacity:1"
         id="path915" />
    </marker>
    <marker
       style="overflow:visible"
       id="Arrow1Mstart"
       refX="0.0"
       refY="0.0"
       orient="auto"
       inkscape:stockid="Arrow1Mstart"
       inkscape:isstock="true">
      <path
         transform="scale(0.4) translate(10,0)"
         style="fill-rule:evenodd;stroke:#ff0000;stroke-width:1pt;stroke-opacity:1;fill:#ff0000;fill-opacity:1"
         d="M 0.0,0.0 L 5.0,-5.0 L -12.5,0.0 L 5.0,5.0 L 0.0,0.0 z "
         id="path903" />
    </marker>
    <marker
       style="overflow:visible;"
       id="Arrow2Mend"
       refX="0.0"
       refY="0.0"
       orient="auto"
       inkscape:stockid="Arrow2Mend"
       inkscape:isstock="true">
      <path
         transform="scale(0.6) rotate(180) translate(0,0)"
         d="M 8.7185878,4.0337352 L -2.2072895,0.016013256 L 8.7185884,-4.0017078 C 6.9730900,-1.6296469 6.9831476,1.6157441 8.7185878,4.0337352 z "
         style="fill-rule:evenodd;stroke-width:0.625;stroke-linejoin:round;stroke:#7272bb;stroke-opacity:1;fill:#7272bb;fill-opacity:1"
         id="path924" />
    </marker>
    <marker
       style="overflow:visible"
       id="TriangleInL"
       refX="0.0"
       refY="0.0"
       orient="auto"
       inkscape:stockid="TriangleInL"
       inkscape:isstock="true">
      <path
         transform="scale(-0.8)"
         style="fill-rule:evenodd;stroke:#ff0000;stroke-width:1pt;stroke-opacity:1;fill:#ff0000;fill-opacity:1"
         d="M 5.77,0.0 L -2.88,5.0 L -2.88,-5.0 L 5.77,0.0 z "
         id="path1030" />
    </marker>
    <marker
       style="overflow:visible;"
       id="Arrow2Lend"
       refX="0.0"
       refY="0.0"
       orient="auto"
       inkscape:stockid="Arrow2Lend"
       inkscape:isstock="true">
      <path
         transform="scale(1.1) rotate(180) translate(1,0)"
         d="M 8.7185878,4.0337352 L -2.2072895,0.016013256 L 8.7185884,-4.0017078 C 6.9730900,-1.6296469 6.9831476,1.6157441 8.7185878,4.0337352 z "
         style="fill-rule:evenodd;stroke-width:0.625;stroke-linejoin:round;stroke:#000068;stroke-opacity:1;fill:#000068;fill-opacity:1"
         id="path918" />
    </marker>
    <marker
       style="overflow:visible"
       id="Arrow1Lstart"
       refX="0.0"
       refY="0.0"
       orient="auto"
       inkscape:stockid="Arrow1Lstart"
       inkscape:isstock="true">
      <path
         transform="scale(0.8) translate(12.5,0)"
         style="fill-rule:evenodd;stroke:#000068;stroke-width:1pt;stroke-opacity:1;fill:#000068;fill-opacity:1"
         d="M 0.0,0.0 L 5.0,-5.0 L -12.5,0.0 L 5.0,5.0 L 0.0,0.0 z "
         id="path897" />
    </marker>
    <marker
       style="overflow:visible"
       id="Arrow2Mend-3"
       refX="0"
       refY="0"
       orient="auto"
       inkscape:stockid="Arrow2Mend"
       inkscape:isstock="true">
      <path
         transform="scale(-0.6)"
         d="M 8.7185878,4.0337352 -2.2072895,0.01601326 8.7185884,-4.0017078 c -1.7454984,2.3720609 -1.7354408,5.6174519 -6e-7,8.035443 z"
         style="fill:#ff0000;fill-opacity:1;fill-rule:evenodd;stroke:#ff0000;stroke-width:0.625;stroke-linejoin:round;stroke-opacity:1"
         id="path924-6" />
    </marker>
  </defs>
  <sodipodi:namedview
     pagecolor="#ffffff"
     bordercolor="#666666"
     borderopacity="1"
     objecttolerance="10"
     gridtolerance="10"
     guidetolerance="10"
     inkscape:pageopacity="0"
     inkscape:pageshadow="2"
     inkscape:window-width="1920"
     inkscape:window-height="1043"
     id="namedview152"
     showgrid="false"
     inkscape:zoom="0.77291588"
     inkscape:cx="566.32957"
     inkscape:cy="440.80949"
     inkscape:window-x="0"
     inkscape:window-y="0"
     inkscape:window-maximized="1"
     inkscape:current-layer="svg150"
     inkscape:document-rotation="0" />
  <path
     d="m 26766.78,9691.624 a 13329.22,9906.3803 0 1 1 -26658.43926,0 13329.22,9906.3803 0 1 1 26658.43826,0 z"
     id="path2"
     inkscape:connector-curvature="0"
     style="fill:none;stroke:#7272bb;stroke-width:79.2000001;stroke-dasharray:none;stroke-miterlimit:3.7249999;stroke-dashoffset:0;stroke-opacity:1" />
  <path
     d="m 21666.133,9713.0142 a 9842.349,6913.3214 0 1 1 -19684.698,0 9842.3487,6913.3212 0 1 1 19684.697,0 z"
     id="path4"
     inkscape:connector-curvature="0"
     style="fill:none;stroke:#7272bb;stroke-width:79.2000001;stroke-dasharray:none;stroke-miterlimit:3.7249999;stroke-dashoffset:0;stroke-opacity:1" />
  <path
     d="m 13759.672,9669.9012 a 5058.369,3987.5691 0 1 1 -10116.738,0 5058.3685,3987.5687 0 1 1 10116.737,0 z"
     id="path6"
     inkscape:connector-curvature="0"
     style="fill:none;stroke:#7272bb;stroke-width:79.2000001;stroke-dasharray:none;stroke-miterlimit:3.7249999;stroke-dashoffset:0;stroke-opacity:1" />
  <path
     d="M 0.93103145,19593.797 C 185.11033,19593.797 4007.9771,14234.985 6076.0009,15334.956 c 2219.0998,1180.327 1859.2256,3475.484 3833.9311,3905.633 1974.706,430.149 2727.627,-3841.214 3072.954,-5207.401 273.85,-1142.764 376.904,-2468.317 684.924,-3516.445 420.424,-1468.577 1623.395,-2566.0214 2879.448,-3158.0681 1122.34,-742.4925 3131.791,-914.3124 5428.926,-2320.0804 C 24273.32,3632.8264 25324.365,-69.141333 25324.365,-69.141333"
     id="path122"
     inkscape:connector-curvature="0"
     style="fill:none;stroke:#ff0000;stroke-width:93.5527"
     sodipodi:nodetypes="cszccczc" />
  <path
     style="fill:none;stroke:#7272bb;stroke-width:79.2000001;stroke-linecap:butt;stroke-linejoin:miter;stroke-miterlimit:3.7249999;stroke-dasharray:none;stroke-opacity:1;marker-end:url(#Arrow2Mend)"
     d="M 13628.617,10499.458 11633.801,10035.24"
     id="path895"
     sodipodi:nodetypes="cc" />
</svg>
